<svg xmlns="http://www.w3.org/2000/svg" viewBox="0 0 100 125"><path d="M94.89 51.13c-.49-5.28-2.5-8.61-3.48-9.95a9.86 9.86 0 00-1.65-9.43 8.75 8.75 0 00-6.88-3.61c-.88-2.17-3.52-7.2-9.3-7.58a10.77 10.77 0 00-8.85 3.46c-1.32-1.17-3.81-2.74-7.77-2.8-2.94-.05-6.11 1.1-8.24 3.16a11.82 11.82 0 00-8.84-3.85c-6.5 0-10.25 4.34-11.56 6.21-1.48-.2-4.3-.1-7.03 2.7a12.39 12.39 0 00-3.3 7.62c-1.76.5-5.09 2.02-6.82 6.61-1.4 3.72-.99 8.21-.67 10.33-2.27.88-5.25 3.34-5.49 8.58-.13 2.86.64 5.13 2.27 6.75 1.88 1.86 4.41 2.3 5.78 2.39a10.23 10.23 0 009.56 5.98c2.74 0 3.78-.77 4.7-1.44l.18-.14c2.38 1.97 5.92 2.81 9.1 2.81 1.84 0 3.54-.28 4.83-.77 1.23.72 2.93 1.3 5.25 1.3 3.55 0 5.9-1.26 7.38-2.8 1.84.56 3.52.86 5.04.86 1.85 0 3.45-.42 4.8-1.26a7.5 7.5 0 001.97-1.78 13 13 0 003.68.6c1.49 0 2.78-.35 3.87-1.05 1-.65 1.67-1.5 2.12-2.33.62.08 1.22.14 1.78.14 2.01 0 3.61-.54 4.79-1.61a5.63 5.63 0 001.4-2.04c3.4.1 6.9-2.17 8.56-4.74 2.37-3.66 3.26-7.57 2.82-12.32zm-7.2-17.83c2.91 3.86 1.16 7.33 1.1 7.47l-.02.02a15 15 0 00-.97 4.7c-.01.43.32.8.75.8l.03.01c.41 0 .76-.33.77-.75.02-.48.12-1.38.32-2.33.85 1.32 2.22 4 2.62 7.97-.55.07-1.24.13-2 .13h-.05c1.44-1.56 1.19-3.23.8-3.96a.78.78 0 10-1.37.74c0 .01.62 1.2-.87 2.46l-.3.26c-1.28-.9-1.52-3.03-1.68-5.89-.05-.87-.1-1.69-.2-2.43a3.54 3.54 0 011.83-3.88.78.78 0 00-.62-1.42c-.3.12-.64.33-1 .63a7.37 7.37 0 00-4.36-1.3c-.44-1.1-.26-2.08-.03-3.3.14-.76.29-1.59.3-2.51 1.01 0 3.24.3 4.96 2.58zm-40.56-6.82a7.4 7.4 0 00-.66 1.7c-1.22.18-3.37.62-5.63 1.69-.3.15-.59.32-.88.48-.4-.11-.82-.3-1.27-.5-1.17-.55-2.63-1.22-4.4-.31a.78.78 0 00.72 1.38c1.03-.54 1.83-.22 3.03.33l.28.13a13.5 13.5 0 00-3.9 4.3c-.96-.85-2.13-1.5-3.59-2 0-.47-.07-.95-.15-1.42.06-1.44 4.5-5.21 7.04-5.59 3.84-.57 5.62.9 5.7.98a.78.78 0 001.04-1.16c-.07-.07-1.44-1.25-4.2-1.46l.02-.1a3.62 3.62 0 00-.76-1.8l.36-.01c4 0 6.34 2.25 7.25 3.36zM34.23 46.2a5.26 5.26 0 00-2.7 4.48c-.9.2-1.9.7-2.8 1.47.27-6.94 5.61-9.99 5.89-10.14.36-.2.6-.55.66-.95.04-.28.1-.56.15-.83.4.6.72 1.36.8 2.2.1 1.08-.15 2.63-2 3.77zm-7.38 11.6c-.48.59-.96 1.28-1.42 2.06a32.05 32.05 0 01-1.07-4.14c-.57-2.7-.9-4.02-1.81-4.37-.6-.22-1.23-.3-1.79-.39a14.9 14.9 0 01-.54-.08c.3-.57.42-1.14.52-1.66.16-.8.28-1.38.97-1.9a6.74 6.74 0 002.08-2.27c.8.56 1.33 1.2 1.5 1.82a.77.77 0 101.5-.42 5.3 5.3 0 00-2.34-2.84c.17-.36.35-.76.62-1.23.65-1.15 1.4-1.93 2.28-2.84.78-.8 1.66-1.71 2.61-3.04.3-.4.5-.83.63-1.25 1.31.48 2.3 1.08 3.12 1.9-.39.92-.69 1.9-.88 2.93-.67.44-1.84 1.32-3.02 2.68-.23-.36-.26-.8.02-1.6a.78.78 0 00-1.47-.51c-.6 1.71-.13 2.7.48 3.36l-.15.2c-1.82 2.7-3.57 7.2-1.84 13.6zm-9.78-6.25l-.28.14c-.7-.86-2.1-2.14-4.01-1.7-.02-1.74.16-3.69.8-5.4.14-.34.28-.65.43-.96.8.58 1.73 1.38 2.18 2.21.45.82.71 1.8.97 2.74.25.9.48 1.76.86 2.46-.25.18-.56.35-.95.5zm20.63-28.2c.62.7 1.08 1.4 1.05 1.63l-.03.04c-.4.03-.8.06-1.23.13-2.2.32-5.62 2.64-7.32 4.83-.08-.4-.12-.78-.12-1.15.06-.1 2.56-4.46 7.65-5.48zm-9.24 6.07l.06.01c.06.67.22 1.34.38 2 .38 1.57.7 2.92-.2 4.17-.88 1.23-1.69 2.06-2.46 2.87-.91.94-1.77 1.83-2.52 3.15-.27.47-.47.88-.63 1.25-2.14-1-3.37-.76-3.52-.72-.4.1-.65.5-.56.91.08.41.5.68.9.6.02 0 .9-.14 2.53.62-.31.6-.71 1.09-1.66 1.8-1.17.88-1.39 1.97-1.56 2.84a9 9 0 01-.15.64c-.14-.42-.28-.9-.41-1.38-.27-.99-.57-2.1-1.1-3.08a9.28 9.28 0 00-2.74-2.8 7.3 7.3 0 013.8-2.73c.15 0 .3-.02.44-.03 1.6-.14 3.57-.31 5.87-1.42a.78.78 0 00-.68-1.4c-1.36.66-2.6.94-3.72 1.1.01-.45.07-1.47.42-2.69.55-.21 1.03-.6 1.47-.98.32-.26.65-.54.98-.74.77-.46 2.05-.33 2.48-.24a.78.78 0 00.32-1.52c-.21-.04-2.16-.43-3.6.43l-.33.23c.25-.36.54-.71.87-1.05 2.66-2.73 5.22-1.87 5.32-1.84zM13.88 69.15c-.03 0-2.97.12-4.78-1.66-1.1-1.08-1.6-2.7-1.5-4.8.26-5.71 4.4-6.45 4.56-6.47a1.3 1.3 0 001.08-1.56c0-.03-.28-1.33-.4-3.13.05 0 .1 0 .15-.02 1.18-.34 2.11.54 2.6 1.14-1.37 1.69-1.26 4.53-1.16 6.9.06 1.4.12 2.86-.18 3.5a.78.78 0 001.4.66c.46-.98.4-2.48.33-4.22-.1-2.31-.2-4.88 1-6.06.07-.03.11-.08.16-.13.16-.13.32-.25.52-.33a6.32 6.32 0 001.46-.82c.42.18.91.27 1.43.34.47.07.96.13 1.38.28.3.37.65 2.04.91 3.27.42 1.95.88 4.1 1.7 5.57a13.2 13.2 0 00-1.08 7.44c-.28.04-.61.06-1.02.03a1.43 1.43 0 01-1.1-.7 1.8 1.8 0 01-.09-1.63c.27-.4.5-.72.62-.96.61-1.12-.46-2.45-1.6-3.86-.49-.6-1.28-1.59-1.37-2 1.7-1.24 1.73-5.1 1.72-5.86a.78.78 0 00-.78-.76h-.01a.78.78 0 00-.77.78c.03 1.55-.3 4.07-1.1 4.6-.33.22-.55.54-.6.93-.16.98.7 2.05 1.7 3.29.51.63 1.46 1.8 1.45 2.13-.11.21-.3.5-.54.85-1.03 1.52-2.9 4.3-2.8 7.19a7.7 7.7 0 01-1.97-3.01 1.31 1.31 0 00-1.32-.92zm8.6 5.96a8.12 8.12 0 01-3.53-.8c-.62-1.8.07-3.76.95-5.39l.13.29a2.98 2.98 0 002.3 1.41 7.38 7.38 0 001.5-.05c.38 1.22 1 2.44 1.9 3.65-.75.55-1.29.92-3.25.89zm19.89.59l-.02-.01a4.36 4.36 0 01-1.32-1.37c-.06-.12-.15-.21-.24-.3-.37-.62-.65-1.28-.9-2.04.9.1 1.7.1 2.31-.01 2-.38 3.93.38 4.58.68.18 1.47.87 3.02 1.46 4.11-.48.07-.99.12-1.56.12a7.42 7.42 0 01-4.31-1.18zM89.9 62.05a8.25 8.25 0 01-5.87 3.54c.01-.37-.01-.62-.01-.65a1.3 1.3 0 00-2.58.27c0 .02.18 1.97-1.08 3.11-.83.76-2.2 1.05-3.99.88l.03-.25a1.3 1.3 0 10-2.57-.2c0 .01-.21 2.07-1.81 3.1-1.15.75-2.79.84-4.87.3.26-.72.33-1.23.34-1.29.09-.61-.29-1.16-.86-1.37.05-.54.03-1.06-.07-1.57.6-1.32 1.44-1.43 2.57-1.56.36-.04.73-.09 1.1-.17-.07.75.03 1.59.61 2.23A.78.78 0 1072 67.37c-.47-.52-.13-1.83.12-2.41 1.6-2.24-.84-6.02-1.13-6.45a.78.78 0 00-1.29.86c.59.87 2.04 3.62 1.12 4.75-.4.5-.97.6-1.86.7-1 .12-2.3.29-3.27 1.57-.1-.08-.2-.15-.32-.21-2.01-1.02-5.96.5-6.4.69a.77.77 0 10.58 1.43c1.42-.57 4.06-1.27 5.11-.74.2.1.3.23.36.44.38 1.53-.2 3.42-1.64 5.32l-.06.14c-.24.22-.5.43-.8.62-1.65 1.01-3.97 1.13-6.9.34.28-.62.47-1.21.55-1.7a1.3 1.3 0 00-2.55-.42 5.62 5.62 0 01-3.8 4.09c-.9-1.6-2.1-4.27-1.25-5.48.85-1.22.8-2.68.77-4.09-.05-1.61-.09-3 1.05-4.04a24.19 24.19 0 013-2.3c1.09-.73 2.11-1.42 3.12-2.56.35-.4.63-.77.87-1.1 1.8 1.36 3.04 1.44 3.27 1.44h.02a.77.77 0 00.75-.78.78.78 0 00-.77-.78c-.01 0-.9-.04-2.34-1.12.43-.52.92-.92 2-1.42 1.32-.62 1.76-1.64 2.1-2.46l.3-.63c.13.7.19 1.54.24 2.28.07.92.14 1.79.3 2.41a5.63 5.63 0 002.14 3.13c-.24.42-.48.85-.72 1.31-1.25 2.42-1.67 2.32-3.1 1.99a9.88 9.88 0 00-5.52.08c-2.31.65-3.8 1.63-4.55 3-1.07 1.92-.4 4.18.12 6a.78.78 0 101.5-.44c-.58-1.96-.96-3.55-.26-4.81a3.5 3.5 0 011.1-1.16c-.62 1.89-.54 3.47.25 4.7 1.52 2.36 5.1 2.54 6.17 2.54h.3a.77.77 0 00.74-.82c-.02-.42-.38-.78-.8-.74-.04 0-3.84.16-5.1-1.82-.7-1.09-.52-2.71.52-4.83l.43-.13c2.25-.64 3.63-.32 4.74-.06 1.88.44 3.12.54 4.84-2.79 2.42-4.7 4.25-5.62 5.13-5.74.58-.1.98.13 1.16.26.66 2.58 2.68 4.37 4.07 5.34a11.9 11.9 0 00-2.62 1.85.77.77 0 101.09 1.11c.02-.02 1.64-1.57 3.45-2.07a3.7 3.7 0 011.4-.14c.92.1 1.67.62 2.3 1.6.23.35.7.46 1.07.22a.77.77 0 00.23-1.07 4.63 4.63 0 00-5.1-2.19c-.85-.48-3.8-2.32-4.44-5.2-.42-1.9.24-3.95 1.95-6.08a16.5 16.5 0 001.93-2.98l.02-.02v-.03a11.65 11.65 0 00-1.1-12.4.77.77 0 00-1.18 1.02c.17.2 3.65 4.39 1.16 10.12-.8-.07-1.55.33-2.23.7-.36.19-.73.4-1.1.52-.86.29-2.08-.1-2.48-.28a.78.78 0 00-.63 1.42c.15.07 1.2.51 2.39.51.4 0 .82-.05 1.22-.19.49-.16.94-.4 1.34-.62l.55-.28c-.32.5-.68 1.02-1.1 1.54-1.6 1.98-2.39 3.94-2.4 5.85a3.1 3.1 0 00-1.11-.06c-1.6.2-3.21 1.54-4.82 3.95a4.07 4.07 0 01-1.45-2.2c-.13-.49-.19-1.3-.25-2.14-.09-1.19-.19-2.4-.48-3.36.28-.12.62-.22 1.04-.3l.3-.08c.5.97 1.58 2.51 3.52 2.51l.28-.01c.43-.03.75-.4.72-.83a.77.77 0 00-.83-.72c-1.24.1-2-1.04-2.33-1.72 1.76-1.63 2.36-5.15 2.86-8.1.29-1.72.59-3.5 1-4.05a.78.78 0 10-1.23-.94c-.65.86-.94 2.57-1.3 4.73-.52 3.09-1.23 7.31-3.27 7.69-.65.12-1.17.3-1.6.5a5.46 5.46 0 00-1.33-.62c-.47-.17-.95-.35-1.35-.6-.43-.35-.64-2.87-.75-4.22-.08-1.04-.17-2.11-.33-2.98-.28-1.57 1.7-4.33 3-5.7a.78.78 0 00-1.12-1.08c-.4.42-3.91 4.2-3.4 7.06.14.79.22 1.82.3 2.83.24 2.92.44 4.74 1.46 5.4.55.34 1.14.56 1.67.75.15.05.34.12.51.2-.4.48-.64 1.02-.85 1.5-.32.76-.55 1.3-1.34 1.66a6.68 6.68 0 00-2.54 1.84 9.28 9.28 0 01-1.9-2c-.1-.13.05-.46.3-.98.5-1.02 1.24-2.57.3-4.73-.76-1.78-.05-4.81.47-7.02.34-1.45.61-2.6.5-3.35-.1-.6-.5-1.23-.9-1.9-.54-.85-1.14-1.81-.93-2.52.12-.44.57-.85 1.32-1.22 3.6-1.76 3.64-3.41 3.35-4.24a1.92 1.92 0 00-2.15-1.25c-.4.1-.63.48-.56.89.07.4.48.68.9.62.09-.01.3.09.35.27.1.31-.31 1.2-2.57 2.32-1.18.58-1.88 1.3-2.13 2.18-.4 1.37.43 2.7 1.1 3.78.3.5.63 1.01.68 1.32.07.44-.2 1.61-.47 2.75-.6 2.55-1.35 5.73-.38 7.98.64 1.49.2 2.46-.25 3.4a34.77 34.77 0 01-2.1-5.31.78.78 0 00-1.49.44c.06.2 1.49 5 3.38 7.46a10.95 10.95 0 002.25 2.36c-.23.32-.5.66-.84 1.06-.87.99-1.77 1.6-2.82 2.3-.92.63-1.97 1.34-3.18 2.43a4.5 4.5 0 00-.87 1.1 7.95 7.95 0 01-3.36-3.83c2.54-1.57 2.05-5.62 2.02-5.8a.78.78 0 00-1.54.2c0 .04.36 2.83-1 4.06-.25-.91-.43-1.93-.6-3.1-.62-4.38-5.23-5.13-7.58-4.9a.77.77 0 00.14 1.54c.22-.02 5.34-.43 5.9 3.59.24 1.62.52 3.02.94 4.25v.04l.03.04a9.58 9.58 0 004.5 5.38c-.19.89-.16 1.8-.14 2.67.04 1.2.07 2.35-.49 3.15-.2.3-.34.63-.43.98a9.36 9.36 0 00-4.94-.56c-.71.14-1.8.07-2.97-.15l-.08-.01c-2.02-.39-4.31-1.22-5.54-2.24-.36-.3-.8-.76-.8-1.23a.78.78 0 00-1.55 0c0 .86.46 1.68 1.36 2.43 1.36 1.12 3.68 2 5.85 2.47.24.81.49 1.56.82 2.27-.4.38-.54.98-.28 1.5.01.04.14.29.4.64-3.1.56-8.13.1-10.53-2.5-6.33-6.82.36-14.32.65-14.64.31-.34.42-.81.28-1.25-.36-1.2-.59-2.33-.7-3.39a5.6 5.6 0 012.86-2.1c.18.77.48 1.45.78 1.95a.78.78 0 001.33-.81 5.57 5.57 0 01-.69-2.05v-.05c-.13-1.2.18-2.66 1.96-3.77a6.44 6.44 0 001.4-1.18l.02.01c.26.2.65.38 1.31.38 1.13 0 3.04-.51 6.5-2.33a.78.78 0 00-.71-1.37c-5.1 2.67-6.1 2.12-6.14 2.12a.77.77 0 00-.03-.33c.32-.78.45-1.64.37-2.55a6.18 6.18 0 00-1.82-3.81c.37-.98.85-1.84 1.4-2.59a3.5 3.5 0 012.53.56c.88.58 1 1.21 1.17 2 .17.79.37 1.76 1.44 2.44a.77.77 0 001.07-.25.78.78 0 00-.24-1.07c-.5-.3-.59-.68-.75-1.43a4.17 4.17 0 00-1.83-2.98c-.7-.47-1.38-.7-2.02-.8 3.01-2.79 7.02-3.47 8.42-3.63.24 1.84-.78 4.26-1.57 6.12l-.35.81c-.9 2.2.5 4.15 1.34 5.06-.79 1.15-1.92 3.8.54 7.58.73 1.11 1.36 2.02 1.9 2.78 1.8 2.54 2.04 3.03 1.42 4.05a.78.78 0 101.32.8c1.2-1.96.25-3.3-1.47-5.75-.53-.75-1.15-1.63-1.86-2.73-2.22-3.4-.93-5.45-.45-6.03 3.17-.22 6.09-2.96 6.21-3.09a.78.78 0 00-1.07-1.12c-.02.03-2.61 2.46-5.21 2.66-.54-.54-1.87-2.08-1.24-3.61l.34-.8c.92-2.16 2.13-5 1.63-7.35.12-.18.22-.37.24-.6a4.8 4.8 0 01.46-1.6c.84.7.76 1.52.63 2.67-.1.97-.23 2.07.33 3.15 1.2 2.32 1.65 3.2 2.96 3.42l.13.02a.78.78 0 00.14-1.54c-.5-.1-.69-.36-1.85-2.61-.34-.66-.26-1.45-.16-2.27.14-1.31.31-2.9-1.3-4.15a9.16 9.16 0 016.7-2.77c4.81.08 6.75 2.82 6.82 2.93.25.37.67.6 1.11.57.44 0 .85-.24 1.08-.62a7.2 7.2 0 011.3-1.48 7.32 7.32 0 01-1.34 6.85c-.02-.05-.02-.1-.03-.16a3.3 3.3 0 00-1.93-2.05c-2.8-1.1-5.73 1.2-5.85 1.3a.78.78 0 00.96 1.22c.03-.02 2.37-1.85 4.32-1.08.48.19.86.6 1.01 1.07.16.5.06 1.01-.28 1.51l-.01.03-.02.02c-.33.3-.6.54-.76.73-.82.96-.04 2.49.78 4.1.35.7.92 1.82.93 2.25-1.93.85-2.75 4.62-2.9 5.37a.78.78 0 101.53.3c.3-1.51 1.14-3.92 2.02-4.26.38-.15.66-.43.8-.8.35-.92-.28-2.15-1-3.56-.37-.73-1.05-2.07-.98-2.4.14-.15.35-.34.61-.57 1.35-1.21 4.09-3.69 4-7.84a5.9 5.9 0 016.2 3.41.78.78 0 101.4-.66c-2.16-4.58-6.58-4.42-7.76-4.29-.1-.47-.2-.95-.37-1.46a8.4 8.4 0 014.87-1.1c5.39.36 7.25 6.44 7.32 6.7.08.25.24.46.44.62.02.9-.12 1.7-.27 2.5-.26 1.36-.5 2.78.22 4.38-1.64 3.45-2.12 6.05-1.4 7.73a2.49 2.49 0 001.42 1.45.77.77 0 00.94-.48.8.8 0 00-.45-1c-.01 0-.32-.13-.52-.66-.27-.72-.44-2.48 1.37-6.29.66-.02 2.04.08 3.31.92a5.3 5.3 0 00-.73 3.72c.1.67.15 1.46.2 2.3.13 2.32.3 5.25 1.97 6.8l-.03.01c-3.47 2.32.2 8.35.36 8.6a.77.77 0 101.32-.81c-.03-.05-2.55-4.26-1.24-6.08v.17c.04 1.29.07 2.63 2.53 4.2a.77.77 0 001.07-.25.78.78 0 00-.24-1.07c-1.76-1.12-1.77-1.8-1.8-2.92 0-.29-.01-.6-.05-.92.34.07.7.12 1.1.12h.03c.8 0 1.52-.06 2.1-.13.13 3.56-.66 6.48-2.49 9.3z"/><path d="M30.27 62.6c-1.34.68-2.7 3.17-2.5 5.65.1 1.37.8 3.84 4.29 5l.24.03a.78.78 0 00.24-1.51c-1.98-.65-3.1-1.91-3.22-3.64-.16-1.97.99-3.81 1.66-4.15a.78.78 0 00-.7-1.39zm39.09-29.52c-1.91.06-3.05 1.7-3.1 1.77a.78.78 0 001.28.87s.75-1.05 1.88-1.1c.91-.01 1.94.64 2.97 1.94 2.43 3.07 2.15 4.59 1.86 4.89a.78.78 0 00.98 1.2c.25-.2 2.3-2.1-1.63-7.06-1.36-1.72-2.77-2.56-4.23-2.51zM29.55 59.44a.78.78 0 001 1.18c.03-.02 2.13-1.8 3.6-.57.36.29.65 1.24.9 2.09.52 1.7 1.17 3.8 3.14 3.82.76 0 1.2.33 1.76.75a3.9 3.9 0 002.5 1.01c.35 0 .75-.05 1.2-.17a.78.78 0 10-.4-1.5c-1.18.32-1.65-.03-2.37-.57a6.6 6.6 0 00-1.06-.7c0-.22-.07-.43-.16-.7-.12-.3-.29-.78-.48-1.74-.43-2.2-.08-4.85.82-6.04a.78.78 0 10-1.25-.93c-1.31 1.76-1.54 4.99-1.1 7.27.18.88.35 1.4.47 1.75-.72-.08-1.11-1.17-1.58-2.7-.35-1.16-.68-2.25-1.4-2.84-1.97-1.64-4.52-.33-5.6.59zm52.58-2.42c.07-1.63-.22-3.1-.63-4.33 1-.31 2.16-1.03 2.66-2.04a.78.78 0 00-1.4-.68c-.3.62-1.22 1.1-1.82 1.27a11.78 11.78 0 00-1.18-2.06.78.78 0 00-1.24.94c.02.03 2.32 3.14 2.04 7.13-.39.03-.77.02-1.14-.08-1.94-.5-2.68-2.32-2.71-2.4a.77.77 0 00-1.45.55c.04.11 1.04 2.64 3.76 3.35 1.01.27 1.97.1 2.81-.03 1.42-.24 1.85-.31 2.17 1a.78.78 0 101.5-.37c-.57-2.36-2.08-2.43-3.37-2.25zM18.8 65.8a.78.78 0 10-1.17-1.04c-.1.12-2.7 2.97-5.69.4-1.65-1.42-.35-3.77-.3-3.87a.78.78 0 10-1.35-.77c-.7 1.22-1.46 4 .64 5.81a5.45 5.45 0 003.6 1.46 6 6 0 004.26-2z"/></svg>

