<svg xmlns="http://www.w3.org/2000/svg" viewBox="0 0 100 100"><path d="M94.566 41.084a37.815 37.815 0 01-.912-3.864c-.19-.996-.328-1.715-.658-2.39-.073-.149-.188-.459-.35-.887a61.51 61.51 0 00-1.324-3.263 1.974 1.974 0 00-.479-1.04c-1.521-3.193-3.822-6.945-6.997-8.704-2.637-1.461-3.338-2.188-3.9-2.771-.686-.71-1.198-1.183-3.041-1.923-.58-.233-1.268-.515-2.021-.823-5.127-2.098-9.892-4-11.868-4.233-1.336-.158-3.017-.083-4.643-.011-1.362.061-2.65.117-3.39.014-1.085-.151-2.584.118-4.038.379-1.12.201-2.277.407-2.911.351-.228-.021-.487-.052-.778-.086-1.813-.214-4.846-.571-9.047.258l-.013.003-.011.003c-3.424.68-4.803 1.799-5.715 2.539-.331.27-.57.464-.774.521-.818.228-7.946 2.295-10.468 5.912-2.146 1.447-6.551 7.892-6.596 7.959-.474.71-1.275 2.235-2.123 3.85-.877 1.669-1.784 3.396-2.282 4.13-1.249 1.839-2.828 6.503-3.282 7.889-.11.337-.268.716-.442 1.142-.983 2.394-2.629 6.401-.641 12.491.246.756.476 1.47.691 2.145.311.969.597 1.858.874 2.68l.005.016c1.33 3.942 2.435 6.204 4.885 6.985 1.37.435 2.403.385 3.319.336.172-.009.334-.015.493-.02.482 1.712 2.4 6.66 8.733 7.943 2.998.607 5.102.763 6.531.859.932 1.74 1.288 6.097 1.289 8.625a1 1 0 102 0c0-.539-.026-3.975-.64-6.869.261.493.597.919 1.079 1.189.353.197.748.297 1.183.297.268 0 .55-.037.845-.112 1.049-.266 1.85-1.417 2.697-2.636.245-.353.607-.871.937-1.28-.768 2.401-1.012 6.082-1.052 9.351-.006.55.436.961.989.961h.012c.547 0 .993-.391 1-.939.058-4.722.742-9.301 1.475-9.965a3.969 3.969 0 001.034-.345l.028-.009c.032-.011.055-.035.085-.049a3.691 3.691 0 001.42-1.267 4.317 4.317 0 00.575-3.222c-.003-.022-.005-.043-.01-.065-.006-.023-.005-.049-.011-.072-.035-.132.092-.479.476-.81.265-.229 1.237-.928 2.64-.319.626.271 1.266.61 1.942.971 2.046 1.087 4.37 2.318 6.977 1.857.885-.155 1.547-.043 2.313.087 1.611.274 3.44.587 7.201-1.5 5.496-3.049 8.255-4.579 7.667-7.325-.123-.574.076-.864.539-1.465.461-.599 1.092-1.417.958-2.67-.095-.891-.448-2.219-1.16-3.617 1.437.066 3.396.059 5.006-.304 1.557-.35 2.46-.763 3.257-1.128.638-.292 1.189-.544 2.013-.721 2.04-.438 6.152-2.624 6.875-5.925.319-1.455.139-2.353-.037-2.906.928-.638 2.684-2.406 1.571-6.208zM58.462 13.172c1.549-.069 3.15-.139 4.32 0 1.869.22 7.801 2.648 11.345 4.098.758.31 1.448.593 2.032.827 1.54.619 1.844.934 2.348 1.456.621.644 1.473 1.526 4.371 3.132 1.948 1.079 3.553 3.124 4.821 5.277-1.06-.392-2.206-.838-2.645-1.433-1.286-1.742-2.65-2.572-4.08-2.503-1.215.07-2.114.816-2.653 1.419-.772-.419-1.66-.632-2.609-.467-.169-.115-.457-.769-.667-1.247-.62-1.411-1.559-3.543-4.006-4.781-2.063-1.043-3.058-.96-3.98-.77-.472.098-.731.15-1.834-.676-2.084-1.559-4.487-.846-6.243-.326-.784.232-1.857.55-2.142.343-1.607-1.178-.222-3.968-.207-3.997a.951.951 0 00.081-.291 72.427 72.427 0 001.748-.061zM38.204 78.825c-.449.646-1.201 1.729-1.546 1.839-.181.045-.425.084-.557.01-.214-.12-.445-.599-.688-1.424-.454-1.544-1.747-1.631-3.704-1.761-1.377-.092-3.457-.229-6.449-.836-4.182-.847-6.028-3.62-6.799-5.393.059.036.115.065.176.105 2.464 1.612 6.052.397 8.426-.405.498-.169.94-.319 1.3-.416 2.345-.632 4.321-.715 5.285-.225.58.295 1.739.601 3.74 1.116 2.051.528 6.227 1.606 7.036 2.332a2.301 2.301 0 01-.325 1.555 1.68 1.68 0 01-.619.564c-.3.072-1.01.207-1.98.182-1.36-.053-2.294 1.315-3.296 2.757zm52.875-29.054c-.45 2.052-3.513 4.005-5.341 4.397-1.038.222-1.743.545-2.426.857-.742.34-1.51.691-2.863.995-2.051.461-4.917.25-5.938.153a11.178 11.178 0 00-2.563-2.354 58.815 58.815 0 00-1.259-.809c2.453-.613 5.319-2.11 6.326-5.407a1 1 0 00-1.912-.585c-1.01 3.303-4.638 4.172-6.534 4.347.801-1.263 1.819-2.95 1.118-4.473a1 1 0 10-1.816.837c.269.583-.6 1.949-1.066 2.684a17.2 17.2 0 00-.429.702c-1.126-.194-2.285-.103-3.605.368-2.698.958-6.038-.961-8.271-3.081-1.537-1.46-2.787-1.86-4.061-1.989 2.82-3.409 1.734-5.967 1.68-6.091a.988.988 0 00-1.295-.499c-.5.21-.736.793-.538 1.299.034.089.788 2.18-2.548 5.221-.732.08-1.566.373-2.515.72-1.647.604-3.696 1.354-5.025.729-.645-.304-1.126-.931-1.473-1.916-.904-2.572-.98-4.898-1.042-6.767-.071-2.17-.138-4.221-2.072-4.583a1 1 0 10-.369 1.966c.356.067.402 1.457.442 2.683.063 1.9.147 4.502 1.154 7.365.526 1.495 1.369 2.525 2.507 3.062 2.083.983 4.568.072 6.566-.66.872-.32 1.757-.665 2.204-.631.319.015.62.023.906.031 1.665.044 2.582.069 4.102 1.512 3.45 3.277 7.31 4.589 10.32 3.514 1.247-.444 2.274-.6 3.416-.22l.001-.146h.002c1.115 1 2.338 1.26 3.987 2.344 2.969 1.951 4.039 5.149 4.203 6.688.046.436-.147.745-.554 1.273-.521.676-1.232 1.619-.91 3.123.154.722-.547 1.478-2.08 2.488.097-.403.183-.851.268-1.386.276-1.747-.155-2.545-.472-3.129-.246-.455-.381-.705-.163-1.661.324-1.416.045-2.728-.806-3.795-.961-1.205-2.632-1.983-4.258-1.983a1 1 0 100 2c.853 0 2.016.381 2.693 1.231.465.583.606 1.29.421 2.104-.357 1.563-.052 2.31.354 3.059.247.458.426.789.256 1.867-.388 2.448-.545 2.588-2.948 4.409-3.106 1.71-4.437 1.489-5.844 1.25-.831-.141-1.773-.304-2.996-.084-1.938.343-3.759-.629-5.689-1.656-.683-.362-1.388-.738-2.088-1.041-1.959-.848-3.733-.227-4.738.638-.323.278-.579.59-.773.917-1.46-.727-3.799-1.374-6.839-2.158-1.436-.369-2.92-.752-3.333-.962-1.84-.934-4.664-.474-6.711.076-.394.105-.877.269-1.422.453-2.006.68-5.038 1.705-6.688.626-1.72-1.124-3.039-1.058-4.198-.997-.815.041-1.586.081-2.609-.245-1.574-.501-2.423-2.247-3.535-5.53.07-.548.319-1.43.744-1.684.219-.132.558-.093 1.007.114a.999.999 0 10.836-1.816c-1.349-.621-2.304-.351-2.867-.015-.255.152-.46.349-.646.561l-.005-.016c-.217-.677-.447-1.395-.695-2.154a17.275 17.275 0 01-.684-2.872c.148-.178.341-.34.461-.351.05.002.272.203.595.632.671.892 1.945 1.68 3.337 1.68h.064c1.449 0 2.694-.845 3.415-1.854.453-.636.805-1.79 1.177-2.76 1.063-2.765 1.901-4.544 3.814-4.102a1 1 0 10.451-1.948c-3.753-.872-5.184 2.864-6.132 5.334-.326.848-.634 1.649-.938 2.077-.341.477-1.018.768-1.812.778-.755.022-1.486-.254-1.78-.644-.881-1.172-1.77-1.354-2.368-1.299a2.085 2.085 0 00-.435.092c.059-2.549.835-4.444 1.424-5.876.079-.192.15-.37.22-.546.383.744.993 1.486 2.04 1.485.146 0 .303-.015.468-.046 2.088-.398 2.332-2.196 2.547-3.783.176-1.299.376-2.771 1.423-4.117 2.305-2.963 4.214-2.88 5.818-2.571.819.156 1.321-.137 1.603-.411.829-.807.591-2.25.339-3.777-.116-.707-.249-1.509-.194-1.927.2-1.567 2.014-3.706 3.501-4.573.642-.373.979-.368 1.056-.302 1.351 2.615 3.076 2.788 3.269 2.799.018.001.035-.008.053-.008.016 0 .031.008.046.008l.146-.007c6.842-.288 8.694.618 9.048 1.435.53 1.224 1.238 1.782 1.863 2.278.78.62 1.519 1.198 2.104 3.523.696 2.77.235 3.925-.101 4.377-.273.366-.669.525-1.21.548-.552.024-.979.43-.956.982.023.535.465.835.998.835h.044c1.147 0 2.091-.407 2.728-1.261.975-1.307 1.121-3.231.437-5.955-.75-2.982-1.887-3.884-2.8-4.609-.546-.433-.94-.746-1.271-1.51-1.165-2.689-6.197-2.843-10.97-2.64l-.036.002c-.173-.05-.904-.337-1.615-1.714-.446-.864-1.331-1.271-2.356-1.09-2.396.422-5.626 4.015-5.962 6.627-.091.709.053 1.583.205 2.508.091.55.231 1.403.214 1.862-2.194-.388-4.798-.232-7.578 3.343-1.378 1.771-1.638 3.682-1.826 5.076-.229 1.685-.36 1.977-.94 2.087-.194.047-.404-.403-.681-1.176-.122-.339-.267-.732-.483-1.062.772-2.154 1.678-4.384 2.34-5.359.561-.828 1.494-2.604 2.397-4.323.787-1.498 1.601-3.047 2.016-3.669 1.536-2.299 5.022-6.873 6.11-7.449l.232-.123.142-.222c1.599-2.499 6.74-4.491 9.339-5.229.98-.041 3.461.147 4.619 1.444-.012.249-.624.914-.952 1.271-.744.809-1.587 1.725-1.471 2.829.063.611.404 1.14 1.011 1.57 1.414 1.003 3.191.425 4.749-.197 1.329-.53 3.208-.476 4.416.842.437.477.934.839 1.476 1.076 2.379 1.039 3.017 2.421 2.134 4.622-.321.803-.307 1.51.043 2.102.667 1.127 2.247 1.32 3.92 1.524 1.127.138 2.405.293 3.056.733 1.879 1.268 4.08 6.681 2.937 9.775-1.505 4.069-.261 5.093.344 5.344a1 1 0 00.992-1.718c-.057-.168-.207-.912.54-2.933 1.519-4.106-1.228-10.462-3.692-12.126-1.05-.708-2.516-.887-3.933-1.06-.777-.095-2.226-.271-2.434-.539 0-.001-.017-.104.085-.358 1.277-3.186.145-5.742-3.189-7.199a2.446 2.446 0 01-.802-.594c-1.852-2.021-4.665-2.134-6.632-1.349-1.147.458-2.285.824-2.85.423-.127-.09-.172-.149-.18-.149.024-.255.627-.911.953-1.264.848-.922 2.268-2.465.961-3.95-.906-1.03-2.212-1.564-3.402-1.838.75-.461 1.831-.934 3.572-1.298 2.516.548 3.406 2.174 3.882 3.06.216.401.372.691.716.874 1.217.648 2.293.202 3.079-.124.719-.3.953-.357 1.214-.193.295.184.377.441.536 1.129.208.897.493 2.126 1.97 3.042.396.246.844.737 1.317 1.256 1.258 1.379 3.009 3.301 6.188 3.301.954 0 2.037-.173 3.272-.585a1 1 0 00-.633-1.897c-4.12 1.375-5.762-.424-7.349-2.165-.57-.626-1.109-1.217-1.742-1.609-.77-.477-.897-1.029-1.075-1.793-.179-.773-.401-1.736-1.426-2.375-1.176-.733-2.252-.284-3.04.043-.583.243-.9.354-1.199.275l-.066-.125c-.323-.6-.915-1.667-2.052-2.59 2.188-.13 3.886.06 5.041.196.311.037.588.069.831.091.893.085 2.136-.139 3.445-.374 1.194-.214 2.533-.451 3.314-.374-.485 1.228-1.335 4.228 1.047 5.973 1.081.792 2.445.39 3.891-.039 1.573-.466 3.199-.946 4.477.009 1.693 1.268 2.492 1.23 3.437 1.034.521-.107 1.062-.22 2.675.596 1.808.914 2.512 2.515 3.078 3.801.52 1.182 1.177 2.654 2.761 2.394 1.249-.201 2.412.811 2.827 1.905.238.627.441 1.805-.872 2.638-1.974 1.253-5.606.772-8.728-2.576a1 1 0 10-1.463 1.363c2.576 2.764 5.389 3.852 7.762 3.851 1.352 0 2.561-.353 3.501-.95 1.78-1.129 2.42-3.059 1.669-5.037a5.197 5.197 0 00-.819-1.399c.29-.316.724-.675 1.236-.704.881-.052 1.765.893 2.355 1.693.82 1.111 2.374 1.684 3.744 2.189.586.216 1.574.583 1.986.883a55.877 55.877 0 011.601 3.863c.193.51.336.878.423 1.057.213.435.324 1.013.491 1.887.182.951.431 2.253.956 4.05.769 2.628-.254 3.661-.795 4.008-.651-.023-1.69-.765-2.018-3.531-.231-1.945-.947-3.387-2.128-4.284-1.518-1.153-3.188-.936-3.371-.906a1 1 0 10.305 1.977c.012-.002 1.01-.121 1.856.522.732.557 1.188 1.542 1.352 2.927.265 2.229.984 3.791 2.14 4.644.342.252.677.401.987.5.017.059.016.11.039.172.126.365.324.911.063 2.101z"/><path d="M31.456 42.08c.04-.893.082-1.896.056-2.857-.11-3.981-2.597-5.223-3.897-5.223h-.009c-.549 0-.995.6-1 1.149-.005.552.439 1.162.991 1.167.019 0 1.83.051 1.914 3.12.024.889-.015 1.776-.053 2.634-.09 2.01-.177 4.065.599 6.034l-.05.259c-.453 2.415-1.206 4.649-3.622 4.649-.643 0-1.341-.203-2.081-.419-1.425-.416-3.042-.887-4.832-.081-.671.301-1.164.84-1.425 1.559-.827 2.272.898 5.952 1.098 6.364a1 1 0 001.801-.872c-.61-1.266-1.428-3.69-1.019-4.811.097-.267.238-.36.363-.417 1.118-.502 2.201-.188 3.455.178.842.245 1.712.498 2.64.498 3.257 0 4.573-2.489 5.17-4.482.141.16.289.319.448.476a63.37 63.37 0 011.872 1.959 52.787 52.787 0 001.919 1.998c.098.861.073 2.481-.219 3.087-.313.646-2.354.23-3.706-.046-1.408-.288-2.624-.537-3.533-.236-1.268.419-1.762 2.01-2.197 3.413-.13.419-.277.894-.38 1.072-.021.036-.022.077-.038.115-.016.039-.045.069-.056.11-.961 3.386 1.337 5.617 1.436 5.711a1.001 1.001 0 001.384-1.446c-.062-.061-1.509-1.512-.898-3.702.167-.348.31-.769.464-1.268.179-.577.599-1.927.915-2.107.401-.129 1.617.116 2.505.298 1.001.205 2.113.43 3.122.421.618 1.977 2.175 3.508 4.475 4.363.021.008 1.551.57 2.72.57.426 0 .805-.157 1.044-.36.42-.358.471-1.071.113-1.492-.272-.317-.7-.465-1.07-.465h-.012c-.666 0-4.223-.446-5.272-3.145.32-.224.59-.526.788-.938.286-.593.409-1.446.448-2.274 1.325.873 2.74 1.316 4.368.941 3.228-.745 7.213-1.351 9.398.606.004.004.01.005.014.009.005.004.006.01.011.014 2.8 2.341 1.471 5.128 1.411 5.249a.999.999 0 001.783.906c.753-1.469 1.321-4.951-1.871-7.655-.006-.005-.008-.013-.014-.018-2.853-2.554-7.254-1.975-11.182-1.07-2.184.509-4.144-1.606-6.403-4.04-.625-.673-1.266-1.382-1.934-2.041-2.186-2.159-2.083-4.522-1.952-7.464zm51.818 3.989c-.813-.223-1.515-.416-1.918-1.005-3.002-4.39-7.499-4.853-10.782-5.19-3.351-.344-4.433-.613-4.418-2.478.037-4.703-.483-5.241-4.13-6.83-2.042-.891-2.344-1.629-2.379-1.745a1 1 0 00-1.973-.296c-.109.498-.176 2.247 3.554 3.873 2.958 1.29 2.958 1.288 2.929 4.979-.03 3.841 3.286 4.179 6.213 4.479 3.215.331 6.858.697 9.337 4.321.816 1.195 2.049 1.518 3.039 1.79 1.268.348 1.427.442 1.425 1.094-.003.552.443.939.996.939h.003c.551 0 .998-.382 1-.933.008-2.265-1.739-2.681-2.896-2.998zM60.324 66.55c-.35.612-.215 1.058-.035 1.327.413.617 1.106.503 1.565.428.729-.12 1.374-.181 1.875.304a.997.997 0 001.414-.024 1 1 0 00-.023-1.414c-.925-.895-2.018-.996-2.83-.938-.188-1.314-1.321-2.84-2.126-3.78a1 1 0 00-1.519 1.3c.886 1.04 1.667 2.344 1.679 2.797z"/></svg>
